<?xml version="1.0" encoding="UTF-8"?>
<svg xmlns="http://www.w3.org/2000/svg" style="display: none;">
  <!-- Apple -->
  <symbol id="brand-apple" viewBox="0 0 384 512">
    <path fill="#FFD700" d="M318.7 268.7c-.2-36.7 16.4-64.4 50-84.8-18.8-26.9-47.2-41.7-84.7-44.6-35.5-2.8-74.3 20.7-88.5 20.7-15 0-49.4-19.7-76.4-19.7C63.3 141.2 4 184.8 4 273.5q0 39.3 14.4 81.2c12.8 36.7 59 126.7 107.2 125.2 25.2-.6 43-17.9 75.8-17.9 31.8 0 48.3 17.9 76.4 17.9 48.6-.7 90.4-82.5 102.6-119.3-65.2-30.7-61.7-90-61.7-91.9zm-56.6-164.2c27.3-32.4 24.8-61.9 24-72.5-24.1 1.4-52 16.4-67.9 34.9-17.5 19.8-27.8 44.3-25.6 71.9 26.1 2 49.9-11.4 69.5-34.3z"/>
  </symbol>

  <!-- Samsung -->
  <symbol id="brand-samsung" viewBox="0 0 100 100">
    <path fill="#FFD700" d="M88.42,28.21H69.76c-14.18,0-19.22,7.33-19.22,14.82,0,7.75,5.31,12.82,19.22,12.82h18.66c.88,0,1.58-.7,1.58-1.57V29.8c0-.88-.71-1.59-1.58-1.59Z"/>
    <path fill="#FFD700" d="M30.24,55.85H11.58c-.88,0-1.58,.71-1.58,1.59v24.48c0,.87,.71,1.57,1.58,1.57h18.66c13.9,0,19.22-5.08,19.22-12.82,0-7.49-5.04-14.82-19.22-14.82Z"/>
    <path fill="#FFD700" d="M30.24,28.21H11.58c-.88,0-1.58,.71-1.58,1.59v24.48c0,.87,.71,1.57,1.58,1.57h18.66c13.9,0,19.22-5.08,19.22-12.82,0-7.49-5.04-14.82-19.22-14.82Z"/>
    <path fill="#FFD700" d="M88.42,55.85H69.76c-14.18,0-19.22,7.33-19.22,14.82,0,7.75,5.31,12.82,19.22,12.82h18.66c.88,0,1.58-.7,1.58-1.57v-24.48c0-.88-.71-1.59-1.58-1.59Z"/>
  </symbol>

  <!-- Vivo -->
  <symbol id="brand-vivo" viewBox="0 0 100 100">
    <path fill="#FFD700" d="M21.9,25L44.3,75H55.7L78.1,25H66.7L50,62.5L33.3,25H21.9z"/>
  </symbol>

  <!-- Oppo -->
  <symbol id="brand-oppo" viewBox="0 0 100 100">
    <path fill="#FFD700" d="M50,25c-13.8,0-25,11.2-25,25s11.2,25,25,25s25-11.2,25-25S63.8,25,50,25z M50,65c-8.3,0-15-6.7-15-15s6.7-15,15-15s15,6.7,15,15S58.3,65,50,65z"/>
  </symbol>

  <!-- OnePlus -->
  <symbol id="brand-oneplus" viewBox="0 0 100 100">
    <path fill="#FFD700" d="M50,25c-13.8,0-25,11.2-25,25s11.2,25,25,25s25-11.2,25-25S63.8,25,50,25z M65,52.5h-12.5V65h-5V52.5H35v-5h12.5V35h5v12.5H65V52.5z"/>
  </symbol>

  <!-- Motorola -->
  <symbol id="brand-motorola" viewBox="0 0 100 100">
    <circle fill="#FFD700" cx="50" cy="50" r="25"/>
    <path fill="#353839" d="M50,35l-10,30h20L50,35z"/>
  </symbol>

  <!-- Xiaomi -->
  <symbol id="brand-xiaomi" viewBox="0 0 100 100">
    <path fill="#FFD700" d="M25,40h10v20H25V40z M42.5,40h10v20h-10V40z M60,40h15v5H65v5h10v5H65v5h10v5H60V40z"/>
  </symbol>

  <!-- Realme -->
  <symbol id="brand-realme" viewBox="0 0 100 100">
    <path fill="#FFD700" d="M25,35h20c8.3,0,15,6.7,15,15s-6.7,15-15,15H25V35z M35,45v10h7.5c2.8,0,5-2.2,5-5s-2.2-5-5-5H35z"/>
    <rect fill="#FFD700" x="65" y="35" width="10" height="30"/>
  </symbol>

  <!-- Infinix -->
  <symbol id="brand-infinix" viewBox="0 0 100 100">
    <path fill="#FFD700" d="M30,45h15l5,10l5-10h15l-15,30H45L30,45z M30,35h40v5H30V35z"/>
  </symbol>

  <!-- IQOO -->
  <symbol id="brand-iqoo" viewBox="0 0 100 100">
    <path fill="#FFD700" d="M30,35h10v30H30V35z M45,35h10v5H45V35z M45,45h10v20H45V45z M60,35h10v30H60V35z"/>
  </symbol>

  <!-- POCO -->
  <symbol id="brand-poco" viewBox="0 0 100 100">
    <path fill="#FFD700" d="M25,35h15c5.5,0,10,4.5,10,10s-4.5,10-10,10H35v10H25V35z M35,45v5h5c1.4,0,2.5-1.1,2.5-2.5S41.4,45,40,45H35z"/>
    <path fill="#FFD700" d="M55,35h10c5.5,0,10,4.5,10,10s-4.5,10-10,10H65v10H55V35z M65,45v5h0c1.4,0,2.5-1.1,2.5-2.5S66.4,45,65,45H65z"/>
  </symbol>

  <!-- Generic -->
  <symbol id="brand-generic" viewBox="0 0 100 100">
    <rect fill="#FFD700" x="25" y="35" width="50" height="10" rx="5" ry="5"/>
    <rect fill="#FFD700" x="25" y="55" width="50" height="10" rx="5" ry="5"/>
  </symbol>
  
  <!-- Microchip -->
  <symbol id="brand-chip" viewBox="0 0 512 512">
    <path fill="#FFD700" d="M176 24c0-13.3-10.7-24-24-24s-24 10.7-24 24V64c-35.3 0-64 28.7-64 64H24c-13.3 0-24 10.7-24 24s10.7 24 24 24H64v56H24c-13.3 0-24 10.7-24 24s10.7 24 24 24H64v56H24c-13.3 0-24 10.7-24 24s10.7 24 24 24H64c0 35.3 28.7 64 64 64v40c0 13.3 10.7 24 24 24s24-10.7 24-24V448h56v40c0 13.3 10.7 24 24 24s24-10.7 24-24V448h56v40c0 13.3 10.7 24 24 24s24-10.7 24-24V448c35.3 0 64-28.7 64-64h40c13.3 0 24-10.7 24-24s-10.7-24-24-24H448V280h40c13.3 0 24-10.7 24-24s-10.7-24-24-24H448V176h40c13.3 0 24-10.7 24-24s-10.7-24-24-24H448c0-35.3-28.7-64-64-64V24c0-13.3-10.7-24-24-24s-24 10.7-24 24V64H280V24c0-13.3-10.7-24-24-24s-24 10.7-24 24V64H176V24zM160 128H352c17.7 0 32 14.3 32 32V352c0 17.7-14.3 32-32 32H160c-17.7 0-32-14.3-32-32V160c0-17.7 14.3-32 32-32zm192 32H160V352H352V160z"/>
  </symbol>

  <!-- Database -->
  <symbol id="brand-database" viewBox="0 0 448 512">
    <path fill="#FFD700" d="M448 80v48c0 44.2-100.3 80-224 80S0 172.2 0 128V80C0 35.8 100.3 0 224 0S448 35.8 448 80zM393.2 214.7c20.8-7.4 39.9-16.9 54.8-28.6V288c0 44.2-100.3 80-224 80S0 332.2 0 288V186.1c14.9 11.8 34 21.2 54.8 28.6C99.7 230.7 159.5 240 224 240s124.3-9.3 169.2-25.3zM0 346.1c14.9 11.8 34 21.2 54.8 28.6C99.7 390.7 159.5 400 224 400s124.3-9.3 169.2-25.3c20.8-7.4 39.9-16.9 54.8-28.6V432c0 44.2-100.3 80-224 80S0 476.2 0 432V346.1z"/>
  </symbol>

  <!-- Lock -->
  <symbol id="brand-lock" viewBox="0 0 448 512">
    <path fill="#FFD700" d="M144 144v48H304V144c0-44.2-35.8-80-80-80s-80 35.8-80 80zM80 192V144C80 64.5 144.5 0 224 0s144 64.5 144 144v48h16c35.3 0 64 28.7 64 64V448c0 35.3-28.7 64-64 64H64c-35.3 0-64-28.7-64-64V256c0-35.3 28.7-64 64-64H80z"/>
  </symbol>

  <!-- Battery -->
  <symbol id="brand-battery" viewBox="0 0 576 512">
    <path fill="#FFD700" d="M464 160c8.8 0 16 7.2 16 16V336c0 8.8-7.2 16-16 16H80c-8.8 0-16-7.2-16-16V176c0-8.8 7.2-16 16-16H464zM80 96C35.8 96 0 131.8 0 176V336c0 44.2 35.8 80 80 80H464c44.2 0 80-35.8 80-80V320c17.7 0 32-14.3 32-32V224c0-17.7-14.3-32-32-32V176c0-44.2-35.8-80-80-80H80z"/>
  </symbol>
  <!-- Tablet -->
  <symbol id="brand-tablet" viewBox="0 0 448 512">
    <path fill="#FFD700" d="M0 64C0 28.7 28.7 0 64 0H384c35.3 0 64 28.7 64 64V448c0 35.3-28.7 64-64 64H64c-35.3 0-64-28.7-64-64V64zM64 240H384V64H64V240z"/>
  </symbol>

  <!-- Check Icon for Features -->
  <symbol id="brand-check" viewBox="0 0 512 512">
    <path fill="#FFD700" d="M256 512A256 256 0 1 0 256 0a256 256 0 1 0 0 512zM369 209L241 337c-9.4 9.4-24.6 9.4-33.9 0l-64-64c-9.4-9.4-9.4-24.6 0-33.9s24.6-9.4 33.9 0l47 47L335 175c9.4-9.4 24.6-9.4 33.9 0s9.4 24.6 0 33.9z"/>
  </symbol>

  <!-- Exchange Icon for Features -->
  <symbol id="brand-exchange" viewBox="0 0 512 512">
    <path fill="#FFD700" d="M142.9 142.9c62.2-62.2 162.7-62.5 225.3-1L327 183c-6.9 6.9-8.9 17.2-5.2 26.2s12.5 14.8 22.2 14.8H463.5c0 0 0 0 0 0H472c13.3 0 24-10.7 24-24V72c0-9.7-5.8-18.5-14.8-22.2s-19.3-1.7-26.2 5.2L413.4 96.6c-87.6-86.5-228.7-86.2-315.8 1C73.2 122 55.6 150.7 44.8 181.4c-5.9 16.7 2.9 34.9 19.5 40.8s34.9-2.9 40.8-19.5c7.7-21.8 20.2-42.3 37.8-59.8zM16 312v7.6 .7V440c0 9.7 5.8 18.5 14.8 22.2s19.3 1.7 26.2-5.2l41.6-41.6c87.6 86.5 228.7 86.2 315.8-1c24.4-24.4 42.1-53.1 52.9-83.7c5.9-16.7-2.9-34.9-19.5-40.8s-34.9 2.9-40.8 19.5c-7.7 21.8-20.2 42.3-37.8 59.8c-62.2 62.2-162.7 62.5-225.3 1L185 329c6.9-6.9 8.9-17.2 5.2-26.2s-12.5-14.8-22.2-14.8H48.4h-.7H40c-13.3 0-24 10.7-24 24z"/>
  </symbol>

  <!-- Shield Icon for Features -->
  <symbol id="brand-shield" viewBox="0 0 512 512">
    <path fill="#FFD700" d="M256 0c4.6 0 9.2 1 13.4 2.9L457.7 82.8c22 9.3 38.4 31 38.3 57.2c-.5 99.2-41.3 280.7-213.6 363.2c-16.7 8-36.1 8-52.8 0C57.3 420.7 16.5 239.2 16 140c-.1-26.2 16.3-47.9 38.3-57.2L242.7 2.9C246.8 1 251.4 0 256 0z"/>
  </symbol>
</svg>
