<?xml version="1.0" encoding="UTF-8"?>
<svg xmlns="http://www.w3.org/2000/svg" style="display: none;">
  <!-- Apple -->
  <symbol id="brand-apple" viewBox="0 0 384 512">
    <path fill="var(--primary-color)" d="M318.7 268.7c-.2-36.7 16.4-64.4 50-84.8-18.8-26.9-47.2-41.7-84.7-44.6-35.5-2.8-74.3 20.7-88.5 20.7-15 0-49.4-19.7-76.4-19.7C63.3 141.2 4 184.8 4 273.5q0 39.3 14.4 81.2c12.8 36.7 59 126.7 107.2 125.2 25.2-.6 43-17.9 75.8-17.9 31.8 0 48.3 17.9 76.4 17.9 48.6-.7 90.4-82.5 102.6-119.3-65.2-30.7-61.7-90-61.7-91.9zm-56.6-164.2c27.3-32.4 24.8-61.9 24-72.5-24.1 1.4-52 16.4-67.9 34.9-17.5 19.8-27.8 44.3-25.6 71.9 26.1 2 49.9-11.4 69.5-34.3z"/>
  </symbol>

  <!-- Samsung -->
  <symbol id="brand-samsung" viewBox="0 0 100 100">
    <path fill="var(--primary-color)" d="M88.42,28.21H69.76c-14.18,0-19.22,7.33-19.22,14.82,0,7.75,5.31,12.82,19.22,12.82h18.66c.88,0,1.58-.7,1.58-1.57V29.8c0-.88-.71-1.59-1.58-1.59Z"/>
    <path fill="var(--primary-color)" d="M30.24,55.85H11.58c-.88,0-1.58,.71-1.58,1.59v24.48c0,.87,.71,1.57,1.58,1.57h18.66c13.9,0,19.22-5.08,19.22-12.82,0-7.49-5.04-14.82-19.22-14.82Z"/>
    <path fill="var(--primary-color)" d="M30.24,28.21H11.58c-.88,0-1.58,.71-1.58,1.59v24.48c0,.87,.71,1.57,1.58,1.57h18.66c13.9,0,19.22-5.08,19.22-12.82,0-7.49-5.04-14.82-19.22-14.82Z"/>
    <path fill="var(--primary-color)" d="M88.42,55.85H69.76c-14.18,0-19.22,7.33-19.22,14.82,0,7.75,5.31,12.82,19.22,12.82h18.66c.88,0,1.58-.7,1.58-1.57v-24.48c0-.88-.71-1.59-1.58-1.59Z"/>
  </symbol>

  <!-- Vivo -->
  <symbol id="brand-vivo" viewBox="0 0 100 100">
    <path fill="var(--primary-color)" d="M21.9,25L44.3,75H55.7L78.1,25H66.7L50,62.5L33.3,25H21.9z"/>
  </symbol>

  <!-- Oppo -->
  <symbol id="brand-oppo" viewBox="0 0 100 100">
    <path fill="var(--primary-color)" d="M50,25c-13.8,0-25,11.2-25,25s11.2,25,25,25s25-11.2,25-25S63.8,25,50,25z M50,65c-8.3,0-15-6.7-15-15s6.7-15,15-15s15,6.7,15,15S58.3,65,50,65z"/>
  </symbol>

  <!-- OnePlus -->
  <symbol id="brand-oneplus" viewBox="0 0 100 100">
    <path fill="var(--primary-color)" d="M50,25c-13.8,0-25,11.2-25,25s11.2,25,25,25s25-11.2,25-25S63.8,25,50,25z M65,52.5h-12.5V65h-5V52.5H35v-5h12.5V35h5v12.5H65V52.5z"/>
  </symbol>

  <!-- Motorola -->
  <symbol id="brand-motorola" viewBox="0 0 100 100">
    <circle fill="var(--primary-color)" cx="50" cy="50" r="25"/>
    <path fill="#353839" d="M50,35l-10,30h20L50,35z"/>
  </symbol>

  <!-- Xiaomi -->
  <symbol id="brand-xiaomi" viewBox="0 0 100 100">
    <path fill="var(--primary-color)" d="M25,40h10v20H25V40z M42.5,40h10v20h-10V40z M60,40h15v5H65v5h10v5H65v5h10v5H60V40z"/>
  </symbol>

  <!-- Realme -->
  <symbol id="brand-realme" viewBox="0 0 100 100">
    <path fill="#FFD700" d="M25,35h20c8.3,0,15,6.7,15,15s-6.7,15-15,15H25V35z M35,45v10h7.5c2.8,0,5-2.2,5-5s-2.2-5-5-5H35z"/>
    <rect fill="#FFD700" x="65" y="35" width="10" height="30"/>
  </symbol>

  <!-- Infinix -->
  <symbol id="brand-infinix" viewBox="0 0 100 100">
    <path fill="#FFD700" d="M30,45h15l5,10l5-10h15l-15,30H45L30,45z M30,35h40v5H30V35z"/>
  </symbol>

  <!-- IQOO -->
  <symbol id="brand-iqoo" viewBox="0 0 100 100">
    <path fill="#FFD700" d="M30,35h10v30H30V35z M45,35h10v5H45V35z M45,45h10v20H45V45z M60,35h10v30H60V35z"/>
  </symbol>

  <!-- POCO -->
  <symbol id="brand-poco" viewBox="0 0 100 100">
    <path fill="#FFD700" d="M25,35h15c5.5,0,10,4.5,10,10s-4.5,10-10,10H35v10H25V35z M35,45v5h5c1.4,0,2.5-1.1,2.5-2.5S41.4,45,40,45H35z"/>
    <path fill="#FFD700" d="M55,35h10c5.5,0,10,4.5,10,10s-4.5,10-10,10H65v10H55V35z M65,45v5h0c1.4,0,2.5-1.1,2.5-2.5S66.4,45,65,45H65z"/>
  </symbol>

  <!-- Generic -->
  <symbol id="brand-generic" viewBox="0 0 100 100">
    <rect fill="#FFD700" x="25" y="35" width="50" height="10" rx="5" ry="5"/>
    <rect fill="#FFD700" x="25" y="55" width="50" height="10" rx="5" ry="5"/>
  </symbol>
  
  <!-- Microchip -->
  <symbol id="brand-chip" viewBox="0 0 512 512">
    <path fill="#FFD700" d="M176 24c0-13.3-10.7-24-24-24s-24 10.7-24 24V64c-35.3 0-64 28.7-64 64H24c-13.3 0-24 10.7-24 24s10.7 24 24 24H64v56H24c-13.3 0-24 10.7-24 24s10.7 24 24 24H64v56H24c-13.3 0-24 10.7-24 24s10.7 24 24 24H64c0 35.3 28.7 64 64 64v40c0 13.3 10.7 24 24 24s24-10.7 24-24V448h56v40c0 13.3 10.7 24 24 24s24-10.7 24-24V448h56v40c0 13.3 10.7 24 24 24s24-10.7 24-24V448c35.3 0 64-28.7 64-64h40c13.3 0 24-10.7 24-24s-10.7-24-24-24H448V280h40c13.3 0 24-10.7 24-24s-10.7-24-24-24H448V176h40c13.3 0 24-10.7 24-24s-10.7-24-24-24H448c0-35.3-28.7-64-64-64V24c0-13.3-10.7-24-24-24s-24 10.7-24 24V64H280V24c0-13.3-10.7-24-24-24s-24 10.7-24 24V64H176V24zM160 128H352c17.7 0 32 14.3 32 32V352c0 17.7-14.3 32-32 32H160c-17.7 0-32-14.3-32-32V160c0-17.7 14.3-32 32-32zm192 32H160V352H352V160z"/>
  </symbol>

  <!-- Database -->
  <symbol id="brand-database" viewBox="0 0 448 512">
    <path fill="#FFD700" d="M448 80v48c0 44.2-100.3 80-224 80S0 172.2 0 128V80C0 35.8 100.3 0 224 0S448 35.8 448 80zM393.2 214.7c20.8-7.4 39.9-16.9 54.8-28.6V288c0 44.2-100.3 80-224 80S0 332.2 0 288V186.1c14.9 11.8 34 21.2 54.8 28.6C99.7 230.7 159.5 240 224 240s124.3-9.3 169.2-25.3zM0 346.1c14.9 11.8 34 21.2 54.8 28.6C99.7 390.7 159.5 400 224 400s124.3-9.3 169.2-25.3c20.8-7.4 39.9-16.9 54.8-28.6V432c0 44.2-100.3 80-224 80S0 476.2 0 432V346.1z"/>
  </symbol>

  <!-- Lock -->
  <symbol id="brand-lock" viewBox="0 0 448 512">
    <path fill="#FFD700" d="M144 144v48H304V144c0-44.2-35.8-80-80-80s-80 35.8-80 80zM80 192V144C80 64.5 144.5 0 224 0s144 64.5 144 144v48h16c35.3 0 64 28.7 64 64V448c0 35.3-28.7 64-64 64H64c-35.3 0-64-28.7-64-64V256c0-35.3 28.7-64 64-64H80z"/>
  </symbol>

  <!-- Battery -->
  <symbol id="brand-battery" viewBox="0 0 576 512">
    <path fill="#FFD700" d="M464 160c8.8 0 16 7.2 16 16V336c0 8.8-7.2 16-16 16H80c-8.8 0-16-7.2-16-16V176c0-8.8 7.2-16 16-16H464zM80 96C35.8 96 0 131.8 0 176V336c0 44.2 35.8 80 80 80H464c44.2 0 80-35.8 80-80V320c17.7 0 32-14.3 32-32V224c0-17.7-14.3-32-32-32V176c0-44.2-35.8-80-80-80H80z"/>
  </symbol>  <!-- Tablet -->
  <symbol id="brand-tablet" viewBox="0 0 448 512">
    <path fill="#FFD700" d="M0 64C0 28.7 28.7 0 64 0H384c35.3 0 64 28.7 64 64V448c0 35.3-28.7 64-64 64H64c-35.3 0-64-28.7-64-64V64zM64 240H384V64H64V240z"/>
  </symbol>
  
  <!-- Water Damage Icon -->
  <symbol id="brand-water" viewBox="0 0 576 512">
    <path fill="#FFD700" d="M269.5 69.9c11.1-15.9 36.8-15.9 47.9 0l118.8 169.9c9 12.9 14.1 28.4 14.6 44.3l1.1 36.7c.4 12.3-9.2 22.6-21.5 23l-8.3 .3c-11.9 .4-22.1-8.5-23.4-20.3L394 287.7c-.5-5.3-5.2-9.1-10.6-8.5c-5 .5-8.4 5.1-8.4 10.1v96c0 9.7-7.8 17.5-17.5 17.5c-3.1 0-6.1-1.1-8.5-3l-11.3-9c-11.7-9.3-28.5-9.3-40.2 0l-11.3 9c-2.4 1.9-5.4 3-8.5 3c-9.7 0-17.5-7.8-17.5-17.5v-96c0-5-3.4-9.6-8.4-10.1c-5.4-.6-10.1 3.2-10.6 8.5l-4.7 47.3c-1.3 11.8-11.5 20.7-23.4 20.3l-8.3-.3c-12.3-.4-21.9-10.7-21.5-23l1.1-36.7c.5-15.9 5.6-31.4 14.6-44.3L269.5 69.9zM288 0c-69.6 0-134.2 34.9-172.5 92.9L5.5 363C1.7 370.7 0 379.1 0 387.6C0 457.5 57 512 128 512H448c71 0 128-54.5 128-124.4c0-8.5-1.7-16.9-5.5-24.6L460.5 92.9C422.2 34.9 357.6 0 288 0zm0 416c-17.7 0-32-14.3-32-32s14.3-32 32-32s32 14.3 32 32s-14.3 32-32 32zm16-128c0 8.8-7.2 16-16 16s-16-7.2-16-16V160c0-8.8 7.2-16 16-16s16 7.2 16 16V288z"/>
  </symbol>

  <!-- Check Icon for Features -->
  <symbol id="brand-check" viewBox="0 0 512 512">
    <path fill="#FFD700" d="M256 512A256 256 0 1 0 256 0a256 256 0 1 0 0 512zM369 209L241 337c-9.4 9.4-24.6 9.4-33.9 0l-64-64c-9.4-9.4-9.4-24.6 0-33.9s24.6-9.4 33.9 0l47 47L335 175c9.4-9.4 24.6-9.4 33.9 0s9.4 24.6 0 33.9z"/>
  </symbol>

  <!-- Exchange Icon for Features -->
  <symbol id="brand-exchange" viewBox="0 0 512 512">
    <path fill="#FFD700" d="M142.9 142.9c62.2-62.2 162.7-62.5 225.3-1L327 183c-6.9 6.9-8.9 17.2-5.2 26.2s12.5 14.8 22.2 14.8H463.5c0 0 0 0 0 0H472c13.3 0 24-10.7 24-24V72c0-9.7-5.8-18.5-14.8-22.2s-19.3-1.7-26.2 5.2L413.4 96.6c-87.6-86.5-228.7-86.2-315.8 1C73.2 122 55.6 150.7 44.8 181.4c-5.9 16.7 2.9 34.9 19.5 40.8s34.9-2.9 40.8-19.5c7.7-21.8 20.2-42.3 37.8-59.8zM16 312v7.6 .7V440c0 9.7 5.8 18.5 14.8 22.2s19.3 1.7 26.2-5.2l41.6-41.6c87.6 86.5 228.7 86.2 315.8-1c24.4-24.4 42.1-53.1 52.9-83.7c5.9-16.7-2.9-34.9-19.5-40.8s-34.9 2.9-40.8 19.5c-7.7 21.8-20.2 42.3-37.8 59.8c-62.2 62.2-162.7 62.5-225.3 1L185 329c6.9-6.9 8.9-17.2 5.2-26.2s-12.5-14.8-22.2-14.8H48.4h-.7H40c-13.3 0-24 10.7-24 24z"/>
  </symbol>
  <!-- Shield Icon for Features -->
  <symbol id="brand-shield" viewBox="0 0 512 512">
    <path fill="#FFD700" d="M256 0c4.6 0 9.2 1 13.4 2.9L457.7 82.8c22 9.3 38.4 31 38.3 57.2c-.5 99.2-41.3 280.7-213.6 363.2c-16.7 8-36.1 8-52.8 0C57.3 420.7 16.5 239.2 16 140c-.1-26.2 16.3-47.9 38.3-57.2L242.7 2.9C246.8 1 251.4 0 256 0z"/>
  </symbol>
  
  <!-- Warranty Symbol -->
  <symbol id="brand-warranty" viewBox="0 0 512 512">
    <path fill="#FFD700" d="M256 48a208 208 0 1 1 0 416 208 208 0 1 1 0-416zm0 464A256 256 0 1 0 256 0a256 256 0 1 0 0 512zM369 209L241 337c-9.4 9.4-24.6 9.4-33.9 0l-64-64c-9.4-9.4-9.4-24.6 0-33.9s24.6-9.4 33.9 0l47 47L335 175c9.4-9.4 24.6-9.4 33.9 0s9.4 24.6 0 33.9z"/>
  </symbol>
  
  <!-- Price Symbol -->
  <symbol id="brand-price" viewBox="0 0 320 512">
    <path fill="#FFD700" d="M0 64C0 46.3 14.3 32 32 32H96h16H288c17.7 0 32 14.3 32 32s-14.3 32-32 32H231.8c9.6 14.4 16.7 30.6 20.7 48H288c17.7 0 32 14.3 32 32s-14.3 32-32 32H252.4c-13.2 58.3-61.9 103.2-122.2 110.9L274.6 422c14.4 10.3 17.7 30.3 7.4 44.6s-30.3 17.7-44.6 7.4L13.4 314C2.3 306 -2.9 291.5 1.6 278.2S18.4 256 32 256h80c32.8 0 61-19.7 73.3-48H32c-17.7 0-32-14.3-32-32s14.3-32 32-32H185.3C173 112.3 144.8 96 112 96H96 32C14.3 96 0 81.7 0 64z"/>
  </symbol>
  
  <!-- More Symbol -->
  <symbol id="brand-more" viewBox="0 0 448 512">
    <path fill="#FFD700" d="M8 256a56 56 0 1 1 112 0A56 56 0 1 1 8 256zm160 0a56 56 0 1 1 112 0 56 56 0 1 1 -112 0zm216-56a56 56 0 1 1 0 112 56 56 0 1 1 0-112z"/>
  </symbol>
</svg>
